<mxfile host="Electron" agent="Mozilla/5.0 (Windows NT 10.0; Win64; x64) AppleWebKit/537.36 (KHTML, like Gecko) draw.io/25.0.2 Chrome/128.0.6613.186 Electron/32.2.5 Safari/537.36" version="25.0.2">
  <diagram id="08364719-37a2-eb97-390a-0d10137c96f5" name="Page-1">
    <mxGraphModel dx="1434" dy="854" grid="1" gridSize="10" guides="1" tooltips="1" connect="1" arrows="1" fold="1" page="1" pageScale="1" pageWidth="827" pageHeight="1169" background="#ffffff" math="0" shadow="0">
      <root>
        <mxCell id="0" />
        <mxCell id="1" parent="0" />
        <mxCell id="4" value="" style="edgeStyle=orthogonalEdgeStyle;rounded=0;html=1;jettySize=auto;orthogonalLoop=1;" parent="1" source="2" target="3" edge="1">
          <mxGeometry relative="1" as="geometry" />
        </mxCell>
        <mxCell id="2" value="Contratación&lt;div&gt;Expréx&lt;/div&gt;" style="ellipse;whiteSpace=wrap;html=1;" parent="1" vertex="1">
          <mxGeometry x="100" y="30" width="120" height="80" as="geometry" />
        </mxCell>
        <mxCell id="7" value="" style="edgeStyle=orthogonalEdgeStyle;rounded=0;html=1;jettySize=auto;orthogonalLoop=1;" parent="1" source="3" target="6" edge="1">
          <mxGeometry relative="1" as="geometry" />
        </mxCell>
        <mxCell id="3" value="La Sala marca fechas libres en su calendario para programar" style="rectangle;whiteSpace=wrap;html=1;" parent="1" vertex="1">
          <mxGeometry x="100" y="160" width="120" height="80" as="geometry" />
        </mxCell>
        <mxCell id="24" value="" style="edgeStyle=orthogonalEdgeStyle;rounded=0;html=1;jettySize=auto;orthogonalLoop=1;" parent="1" source="6" target="23" edge="1">
          <mxGeometry relative="1" as="geometry" />
        </mxCell>
        <mxCell id="6" value="Selecciona los parametros para enviar invitaciones" style="rectangle;whiteSpace=wrap;html=1;" parent="1" vertex="1">
          <mxGeometry x="100" y="270" width="120" height="80" as="geometry" />
        </mxCell>
        <mxCell id="28" value="" style="edgeStyle=orthogonalEdgeStyle;rounded=0;html=1;jettySize=auto;orthogonalLoop=1;" parent="1" source="23" target="27" edge="1">
          <mxGeometry relative="1" as="geometry" />
        </mxCell>
        <mxCell id="23" value="Fecha inicial (X).&lt;div&gt;Fecha final&amp;nbsp;&lt;span&gt;(Y &amp;lt;= X+30&lt;/span&gt;&lt;span&gt;)&lt;/span&gt;&lt;/div&gt;" style="ellipse;whiteSpace=wrap;html=1;aspect=fixed;" parent="1" vertex="1">
          <mxGeometry x="110" y="370" width="100" height="100" as="geometry" />
        </mxCell>
        <mxCell id="36" value="" style="edgeStyle=orthogonalEdgeStyle;rounded=0;html=1;jettySize=auto;orthogonalLoop=1;" parent="1" source="27" target="35" edge="1">
          <mxGeometry relative="1" as="geometry" />
        </mxCell>
        <mxCell id="27" value="Fechas Programables&lt;div&gt;Array [A1,A2...An]&lt;/div&gt;&lt;div&gt;n &amp;lt;= 30&lt;/div&gt;" style="ellipse;whiteSpace=wrap;html=1;aspect=fixed;" parent="1" vertex="1">
          <mxGeometry x="110" y="490" width="100" height="100" as="geometry" />
        </mxCell>
        <mxCell id="37" style="edgeStyle=orthogonalEdgeStyle;rounded=0;html=1;jettySize=auto;orthogonalLoop=1;entryX=0.5;entryY=0;" parent="1" source="35" target="29" edge="1">
          <mxGeometry relative="1" as="geometry">
            <mxPoint x="160" y="740" as="targetPoint" />
            <Array as="points" />
          </mxGeometry>
        </mxCell>
        <mxCell id="35" value="Nº de artistas&lt;div&gt;Array [G1,G2,G3...Gn]&lt;/div&gt;&lt;div&gt;n &amp;lt;= 30&lt;/div&gt;&lt;div&gt;0&amp;lt;=Gi&amp;lt;=3&lt;/div&gt;" style="ellipse;whiteSpace=wrap;html=1;aspect=fixed;" parent="1" vertex="1">
          <mxGeometry x="110" y="610" width="100" height="100" as="geometry" />
        </mxCell>
        <mxCell id="32" value="" style="edgeStyle=orthogonalEdgeStyle;rounded=0;html=1;jettySize=auto;orthogonalLoop=1;" parent="1" source="29" target="31" edge="1">
          <mxGeometry relative="1" as="geometry" />
        </mxCell>
        <mxCell id="29" value="Estilos. Varios" style="ellipse;whiteSpace=wrap;html=1;aspect=fixed;" parent="1" vertex="1">
          <mxGeometry x="110" y="730" width="100" height="100" as="geometry" />
        </mxCell>
        <mxCell id="34" value="" style="edgeStyle=orthogonalEdgeStyle;rounded=0;html=1;jettySize=auto;orthogonalLoop=1;" parent="1" source="31" target="33" edge="1">
          <mxGeometry relative="1" as="geometry" />
        </mxCell>
        <mxCell id="31" value="Valoración mínima" style="ellipse;whiteSpace=wrap;html=1;aspect=fixed;" parent="1" vertex="1">
          <mxGeometry x="110" y="850" width="100" height="100" as="geometry" />
        </mxCell>
        <mxCell id="38" style="edgeStyle=orthogonalEdgeStyle;rounded=0;html=1;jettySize=auto;orthogonalLoop=1;entryX=0.5;entryY=0;" parent="1" source="33" target="9" edge="1">
          <mxGeometry relative="1" as="geometry">
            <mxPoint x="240" y="1020" as="targetPoint" />
            <Array as="points">
              <mxPoint x="266" y="1020" />
              <mxPoint x="266" y="130" />
              <mxPoint x="370" y="130" />
            </Array>
          </mxGeometry>
        </mxCell>
        <mxCell id="33" value="Distancia geográfica" style="ellipse;whiteSpace=wrap;html=1;aspect=fixed;" parent="1" vertex="1">
          <mxGeometry x="110" y="970" width="100" height="100" as="geometry" />
        </mxCell>
        <mxCell id="12" value="" style="edgeStyle=orthogonalEdgeStyle;rounded=0;html=1;jettySize=auto;orthogonalLoop=1;" parent="1" source="9" target="11" edge="1">
          <mxGeometry relative="1" as="geometry" />
        </mxCell>
        <mxCell id="9" value="El sistema selecciona los artistas que cumplan los parametros y envía las invitaciones" style="rectangle;whiteSpace=wrap;html=1;" parent="1" vertex="1">
          <mxGeometry x="310" y="160" width="120" height="80" as="geometry" />
        </mxCell>
        <mxCell id="14" value="" style="edgeStyle=orthogonalEdgeStyle;rounded=0;html=1;jettySize=auto;orthogonalLoop=1;entryX=0.5;entryY=0;" parent="1" target="13" edge="1">
          <mxGeometry relative="1" as="geometry">
            <mxPoint x="553" y="410" as="sourcePoint" />
            <mxPoint x="553" y="410" as="targetPoint" />
            <Array as="points">
              <mxPoint x="553" y="410" />
            </Array>
          </mxGeometry>
        </mxCell>
        <mxCell id="48" value="" style="edgeStyle=orthogonalEdgeStyle;rounded=0;html=1;jettySize=auto;orthogonalLoop=1;" parent="1" source="11" target="47" edge="1">
          <mxGeometry relative="1" as="geometry" />
        </mxCell>
        <mxCell id="11" value="El artista recibe la invitación y consulta condiciones" style="rectangle;whiteSpace=wrap;html=1;" parent="1" vertex="1">
          <mxGeometry x="310" y="270" width="120" height="80" as="geometry" />
        </mxCell>
        <mxCell id="52" value="" style="edgeStyle=orthogonalEdgeStyle;rounded=0;html=1;jettySize=auto;orthogonalLoop=1;" parent="1" source="47" target="51" edge="1">
          <mxGeometry relative="1" as="geometry" />
        </mxCell>
        <mxCell id="54" value="" style="edgeStyle=orthogonalEdgeStyle;rounded=0;html=1;jettySize=auto;orthogonalLoop=1;entryX=0.5;entryY=0;" parent="1" source="47" target="16" edge="1">
          <mxGeometry relative="1" as="geometry">
            <mxPoint x="370" y="530" as="targetPoint" />
            <Array as="points" />
          </mxGeometry>
        </mxCell>
        <mxCell id="47" value="Quedan fechas libres?" style="rhombus;whiteSpace=wrap;html=1;" parent="1" vertex="1">
          <mxGeometry x="310" y="370" width="120" height="80" as="geometry" />
        </mxCell>
        <mxCell id="51" value="Consulta condiciones" style="rectangle;whiteSpace=wrap;html=1;" parent="1" vertex="1">
          <mxGeometry x="510" y="370" width="120" height="80" as="geometry" />
        </mxCell>
        <mxCell id="17" value="" style="edgeStyle=orthogonalEdgeStyle;rounded=0;html=1;jettySize=auto;orthogonalLoop=1;" parent="1" source="13" target="16" edge="1">
          <mxGeometry relative="1" as="geometry" />
        </mxCell>
        <mxCell id="20" value="" style="edgeStyle=orthogonalEdgeStyle;rounded=0;html=1;jettySize=auto;orthogonalLoop=1;entryX=0;entryY=0.5;" parent="1" source="13" target="19" edge="1">
          <mxGeometry relative="1" as="geometry">
            <mxPoint x="670" y="521" as="targetPoint" />
            <Array as="points">
              <mxPoint x="655" y="521" />
              <mxPoint x="655" y="521" />
            </Array>
          </mxGeometry>
        </mxCell>
        <mxCell id="13" value="¿Le interesa?" style="rhombus;whiteSpace=wrap;html=1;" parent="1" vertex="1">
          <mxGeometry x="510" y="476" width="120" height="90" as="geometry" />
        </mxCell>
        <mxCell id="40" value="" style="edgeStyle=orthogonalEdgeStyle;rounded=0;html=1;jettySize=auto;orthogonalLoop=1;" parent="1" source="19" target="39" edge="1">
          <mxGeometry relative="1" as="geometry" />
        </mxCell>
        <mxCell id="19" value="Selecciona fecha&lt;div&gt;Ax donde Gx&amp;gt;0&lt;/div&gt;" style="rectangle;whiteSpace=wrap;html=1;" parent="1" vertex="1">
          <mxGeometry x="680" y="486" width="92" height="69" as="geometry" />
        </mxCell>
        <mxCell id="57" value="" style="edgeStyle=orthogonalEdgeStyle;rounded=0;html=1;jettySize=auto;orthogonalLoop=1;entryX=0.5;entryY=0;" parent="1" source="39" target="60" edge="1">
          <mxGeometry relative="1" as="geometry">
            <mxPoint x="726" y="745" as="targetPoint" />
            <Array as="points" />
          </mxGeometry>
        </mxCell>
        <mxCell id="110" value="" style="edgeStyle=orthogonalEdgeStyle;rounded=0;html=1;jettySize=auto;orthogonalLoop=1;" parent="1" source="39" target="109" edge="1">
          <mxGeometry relative="1" as="geometry" />
        </mxCell>
        <mxCell id="39" value="Gx = 1?" style="rhombus;whiteSpace=wrap;html=1;" parent="1" vertex="1">
          <mxGeometry x="666" y="575" width="120" height="90" as="geometry" />
        </mxCell>
        <mxCell id="111" value="" style="edgeStyle=orthogonalEdgeStyle;rounded=0;html=1;jettySize=auto;orthogonalLoop=1;" parent="1" source="109" target="44" edge="1">
          <mxGeometry relative="1" as="geometry" />
        </mxCell>
        <mxCell id="113" value="" style="edgeStyle=orthogonalEdgeStyle;rounded=0;html=1;jettySize=auto;orthogonalLoop=1;entryX=1;entryY=0.5;exitX=0.5;exitY=1;" parent="1" source="109" target="60" edge="1">
          <mxGeometry relative="1" as="geometry">
            <mxPoint x="886.9999999999998" y="745" as="targetPoint" />
            <Array as="points">
              <mxPoint x="886" y="845" />
            </Array>
          </mxGeometry>
        </mxCell>
        <mxCell id="109" value="Se ha completado&lt;div&gt;el evento?&lt;/div&gt;" style="rhombus;whiteSpace=wrap;html=1;" parent="1" vertex="1">
          <mxGeometry x="827" y="575" width="120" height="90" as="geometry" />
        </mxCell>
        <mxCell id="69" value="" style="edgeStyle=orthogonalEdgeStyle;rounded=0;html=1;jettySize=auto;orthogonalLoop=1;entryX=0;entryY=0.5;" parent="1" source="44" target="70" edge="1">
          <mxGeometry relative="1" as="geometry">
            <mxPoint x="1180" y="620" as="targetPoint" />
            <Array as="points">
              <mxPoint x="1180" y="620" />
            </Array>
          </mxGeometry>
        </mxCell>
        <mxCell id="44" value="Gx &amp;gt; 1&lt;div&gt;Esperar que pase el plazo o se complete&lt;/div&gt;&lt;div&gt;el evento&lt;/div&gt;" style="rectangle;whiteSpace=wrap;html=1;" parent="1" vertex="1">
          <mxGeometry x="996" y="575" width="120" height="90" as="geometry" />
        </mxCell>
        <mxCell id="16" value="Acción finalizada" style="ellipse;whiteSpace=wrap;html=1;" parent="1" vertex="1">
          <mxGeometry x="310" y="1050" width="120" height="90" as="geometry" />
        </mxCell>
        <mxCell id="18" value="NO" style="text;html=1;strokeColor=none;fillColor=none;align=center;verticalAlign=middle;whiteSpace=wrap;rounded=0;" parent="1" vertex="1">
          <mxGeometry x="430" y="501" width="40" height="20" as="geometry" />
        </mxCell>
        <mxCell id="21" style="edgeStyle=orthogonalEdgeStyle;rounded=0;html=1;exitX=0.5;exitY=0;entryX=0.5;entryY=0;jettySize=auto;orthogonalLoop=1;" parent="1" source="18" target="18" edge="1">
          <mxGeometry relative="1" as="geometry" />
        </mxCell>
        <mxCell id="22" value="SI" style="text;html=1;strokeColor=none;fillColor=none;align=center;verticalAlign=middle;whiteSpace=wrap;rounded=0;" parent="1" vertex="1">
          <mxGeometry x="630" y="486" width="40" height="20" as="geometry" />
        </mxCell>
        <mxCell id="43" value="NO" style="text;html=1;strokeColor=none;fillColor=none;align=center;verticalAlign=middle;whiteSpace=wrap;rounded=0;" parent="1" vertex="1">
          <mxGeometry x="790" y="590" width="40" height="20" as="geometry" />
        </mxCell>
        <mxCell id="49" value="SI" style="text;html=1;strokeColor=none;fillColor=none;align=center;verticalAlign=middle;whiteSpace=wrap;rounded=0;" parent="1" vertex="1">
          <mxGeometry x="440" y="390" width="40" height="20" as="geometry" />
        </mxCell>
        <mxCell id="55" value="NO" style="text;html=1;strokeColor=none;fillColor=none;align=center;verticalAlign=middle;whiteSpace=wrap;rounded=0;" parent="1" vertex="1">
          <mxGeometry x="370" y="460" width="40" height="20" as="geometry" />
        </mxCell>
        <mxCell id="58" value="SI" style="text;html=1;strokeColor=none;fillColor=none;align=center;verticalAlign=middle;whiteSpace=wrap;rounded=0;" parent="1" vertex="1">
          <mxGeometry x="680" y="700" width="40" height="20" as="geometry" />
        </mxCell>
        <mxCell id="62" value="" style="edgeStyle=orthogonalEdgeStyle;rounded=0;html=1;jettySize=auto;orthogonalLoop=1;entryX=1;entryY=0.5;exitX=0;exitY=0.5;" parent="1" source="60" target="16" edge="1">
          <mxGeometry relative="1" as="geometry">
            <mxPoint x="540" y="1120" as="targetPoint" />
            <Array as="points">
              <mxPoint x="666" y="840" />
              <mxPoint x="547" y="840" />
              <mxPoint x="547" y="1095" />
            </Array>
          </mxGeometry>
        </mxCell>
        <mxCell id="60" value="Actuación&lt;div&gt;&lt;span style=&quot;line-height: 1.2&quot;&gt;contratada&lt;/span&gt;&lt;/div&gt;" style="rounded=0;whiteSpace=wrap;html=1;" parent="1" vertex="1">
          <mxGeometry x="666" y="815" width="120" height="60" as="geometry" />
        </mxCell>
        <mxCell id="67" value="SI" style="text;html=1;strokeColor=none;fillColor=none;align=center;verticalAlign=middle;whiteSpace=wrap;rounded=0;" parent="1" vertex="1">
          <mxGeometry x="830" y="695" width="40" height="20" as="geometry" />
        </mxCell>
        <mxCell id="72" value="" style="edgeStyle=orthogonalEdgeStyle;rounded=0;html=1;jettySize=auto;orthogonalLoop=1;" parent="1" source="70" target="71" edge="1">
          <mxGeometry relative="1" as="geometry" />
        </mxCell>
        <mxCell id="99" value="" style="edgeStyle=orthogonalEdgeStyle;rounded=0;html=1;jettySize=auto;orthogonalLoop=1;" parent="1" source="70" target="98" edge="1">
          <mxGeometry relative="1" as="geometry" />
        </mxCell>
        <mxCell id="70" value="Se ha acabado el plazo?" style="rhombus;whiteSpace=wrap;html=1;" parent="1" vertex="1">
          <mxGeometry x="1190" y="575" width="120" height="90" as="geometry" />
        </mxCell>
        <mxCell id="102" value="" style="edgeStyle=orthogonalEdgeStyle;rounded=0;html=1;jettySize=auto;orthogonalLoop=1;entryX=1;entryY=0.5;exitX=0.5;exitY=1;" parent="1" source="98" target="60" edge="1">
          <mxGeometry relative="1" as="geometry">
            <mxPoint x="1250" y="875" as="targetPoint" />
            <Array as="points">
              <mxPoint x="1250" y="846" />
            </Array>
          </mxGeometry>
        </mxCell>
        <mxCell id="104" value="" style="edgeStyle=orthogonalEdgeStyle;rounded=0;html=1;jettySize=auto;orthogonalLoop=1;entryX=0.5;entryY=1;" parent="1" source="98" target="44" edge="1">
          <mxGeometry relative="1" as="geometry">
            <mxPoint x="1110" y="750" as="targetPoint" />
            <Array as="points">
              <mxPoint x="1056" y="750" />
            </Array>
          </mxGeometry>
        </mxCell>
        <mxCell id="98" value="Se ha completado&lt;div&gt;el evento?&lt;/div&gt;" style="rhombus;whiteSpace=wrap;html=1;" parent="1" vertex="1">
          <mxGeometry x="1190" y="705" width="120" height="90" as="geometry" />
        </mxCell>
        <mxCell id="76" value="" style="edgeStyle=orthogonalEdgeStyle;rounded=0;html=1;jettySize=auto;orthogonalLoop=1;entryX=1;entryY=0.5;exitX=0;exitY=0.5;" parent="1" source="71" target="60" edge="1">
          <mxGeometry relative="1" as="geometry">
            <mxPoint x="1450" y="745" as="targetPoint" />
            <Array as="points">
              <mxPoint x="1270" y="846" />
              <mxPoint x="1270" y="846" />
            </Array>
          </mxGeometry>
        </mxCell>
        <mxCell id="80" value="" style="edgeStyle=orthogonalEdgeStyle;rounded=0;html=1;jettySize=auto;orthogonalLoop=1;" parent="1" source="71" target="79" edge="1">
          <mxGeometry relative="1" as="geometry" />
        </mxCell>
        <mxCell id="71" value="Se ha completado&lt;div&gt;el evento?&lt;/div&gt;" style="rhombus;whiteSpace=wrap;html=1;" parent="1" vertex="1">
          <mxGeometry x="1350" y="800" width="120" height="90" as="geometry" />
        </mxCell>
        <mxCell id="84" value="" style="edgeStyle=orthogonalEdgeStyle;rounded=0;html=1;jettySize=auto;orthogonalLoop=1;entryX=0.5;entryY=1;exitX=0;exitY=0.5;" parent="1" source="79" target="60" edge="1">
          <mxGeometry relative="1" as="geometry">
            <mxPoint x="1110" y="950" as="targetPoint" />
            <Array as="points">
              <mxPoint x="726" y="995" />
            </Array>
          </mxGeometry>
        </mxCell>
        <mxCell id="79" value="Les interesa a las partes?" style="rhombus;whiteSpace=wrap;html=1;" parent="1" vertex="1">
          <mxGeometry x="1350" y="950" width="120" height="90" as="geometry" />
        </mxCell>
        <mxCell id="90" value="" style="edgeStyle=orthogonalEdgeStyle;rounded=0;html=1;jettySize=auto;orthogonalLoop=1;exitX=0.5;exitY=1;entryX=1;entryY=0.5;" parent="1" source="79" target="16" edge="1">
          <mxGeometry relative="1" as="geometry">
            <mxPoint x="1189.7058823529414" y="1095" as="sourcePoint" />
            <mxPoint x="500" y="1040" as="targetPoint" />
            <Array as="points">
              <mxPoint x="1410" y="1095" />
            </Array>
          </mxGeometry>
        </mxCell>
        <mxCell id="74" value="SI" style="text;html=1;strokeColor=none;fillColor=none;align=center;verticalAlign=middle;whiteSpace=wrap;rounded=0;" parent="1" vertex="1">
          <mxGeometry x="1360" y="630" width="40" height="20" as="geometry" />
        </mxCell>
        <mxCell id="77" value="SI" style="text;html=1;strokeColor=none;fillColor=none;align=center;verticalAlign=middle;whiteSpace=wrap;rounded=0;" parent="1" vertex="1">
          <mxGeometry x="1200" y="805" width="40" height="20" as="geometry" />
        </mxCell>
        <mxCell id="81" value="NO" style="text;html=1;strokeColor=none;fillColor=none;align=center;verticalAlign=middle;whiteSpace=wrap;rounded=0;" parent="1" vertex="1">
          <mxGeometry x="1360" y="900" width="40" height="20" as="geometry" />
        </mxCell>
        <mxCell id="85" value="SI" style="text;html=1;strokeColor=none;fillColor=none;align=center;verticalAlign=middle;whiteSpace=wrap;rounded=0;" parent="1" vertex="1">
          <mxGeometry x="1290" y="970" width="40" height="20" as="geometry" />
        </mxCell>
        <mxCell id="88" value="NO" style="text;html=1;strokeColor=none;fillColor=none;align=center;verticalAlign=middle;whiteSpace=wrap;rounded=0;" parent="1" vertex="1">
          <mxGeometry x="1360" y="1060" width="40" height="20" as="geometry" />
        </mxCell>
        <mxCell id="94" value="NO" style="text;html=1;strokeColor=none;fillColor=none;align=center;verticalAlign=middle;whiteSpace=wrap;rounded=0;" parent="1" vertex="1">
          <mxGeometry x="1200" y="670" width="40" height="20" as="geometry" />
        </mxCell>
        <mxCell id="105" value="NO" style="text;html=1;strokeColor=none;fillColor=none;align=center;verticalAlign=middle;whiteSpace=wrap;rounded=0;" parent="1" vertex="1">
          <mxGeometry x="1140" y="720" width="40" height="20" as="geometry" />
        </mxCell>
        <mxCell id="115" value="NO" style="text;html=1;strokeColor=none;fillColor=none;align=center;verticalAlign=middle;whiteSpace=wrap;rounded=0;" parent="1" vertex="1">
          <mxGeometry x="947" y="590" width="40" height="20" as="geometry" />
        </mxCell>
      </root>
    </mxGraphModel>
  </diagram>
</mxfile>
